<svg xmlns="http://www.w3.org/2000/svg" version="1.0" width="512.000000" height="512.000000" preserveAspectRatio="xMidYMid meet" style=""><rect id="backgroundrect" width="100%" height="100%" x="0" y="0" fill="none" stroke="none"/>


<g class="currentLayer" style=""><title>Layer 1</title><g transform="translate(0,512) scale(0.10000000149011612,-0.10000000149011612) " fill="#ffffff" stroke="none" id="svg_1" class="selected" fill-opacity="1">
<path d="M3990 5099 c-572 -85 -1049 -338 -1393 -739 -85 -99 -220 -289 -372 -523 -208 -322 -544 -978 -695 -1357 -22 -55 -72 -163 -110 -241 -220 -438 -433 -951 -653 -1569 -84 -239 -90 -260 -90 -335 -1 -98 24 -156 95 -228 71 -71 143 -101 243 -102 92 0 141 20 193 80 43 48 51 66 117 255 135 390 291 793 433 1120 41 96 78 178 81 182 3 4 66 -127 140 -290 315 -695 537 -1155 583 -1208 132 -150 401 -91 497 109 39 82 46 132 27 204 -8 32 -79 193 -159 358 -255 531 -556 1195 -549 1213 3 8 25 12 66 12 83 0 1078 186 1134 212 45 21 90 77 110 137 41 119 -30 387 -158 596 -70 115 -148 213 -271 340 -80 83 -124 138 -143 178 -30 62 -147 193 -239 266 l-55 44 26 41 c79 122 206 265 316 355 283 231 594 352 1060 411 102 13 131 25 174 74 108 123 29 355 -138 409 -65 21 -111 20 -270 -4z m-1038 -2187 c46 -51 108 -136 142 -194 l27 -46 -53 -11 c-158 -31 -431 -81 -434 -78 -9 9 261 367 277 367 4 0 22 -17 41 -38z" id="svg_2" fill="#ffffff" fill-opacity="1"/>
<path d="M3488 4241 c-188 -60 -308 -222 -308 -416 0 -122 40 -217 129 -305 67 -67 144 -107 236 -122 290 -48 544 209 495 501 -43 256 -308 420 -552 342z" id="svg_3" fill="#ffffff" fill-opacity="1"/>
</g></g></svg>